<svg xmlns="http://www.w3.org/2000/svg" viewBox="0 0 197.55 49.61"><defs><style>.cls-1{fill:#231f20;}</style></defs><title>scraps plus logo</title><g id="Layer_2" data-name="Layer 2"><g id="Layer_1-2" data-name="Layer 1"><path class="cls-1" d="M0,35.69l1.32-6a17.72,17.72,0,0,0,9.42,3.06c2.28,0,3.6-.54,3.6-2s-1.62-1.62-4.44-2.22C2.7,27.23.72,23.39.72,19.49c0-4.14,3.24-8.28,10.8-8.28a22.13,22.13,0,0,1,9.6,2.46l-1.38,5.7a15.78,15.78,0,0,0-7.8-2.22c-2.1,0-3.12.54-3.12,1.62,0,1.26,1.44,1.56,3.48,2,7.74,1.44,10.14,5.16,10.14,8.7,0,5.64-4,9.3-11.4,9.3A21.9,21.9,0,0,1,0,35.69Z"/><path class="cls-1" d="M25.5,24.89c0-8.1,6.12-13.62,13.8-13.62,4,0,7.44,1,9.48,2.58v6.6a10.32,10.32,0,0,0-6.9-2.4c-4,0-7.08,2.58-7.08,6.84s3.06,7,7.08,7a10.17,10.17,0,0,0,6.9-2.46v6.66c-2,1.62-5.46,2.58-9.48,2.58A13.42,13.42,0,0,1,25.5,24.89Z"/><path class="cls-1" d="M63.18,25v13h-9.3V12h8.7l.3,4.56c1.32-2.88,4.8-5.28,9.18-5.28v8.64C67.5,18.47,63.18,20.51,63.18,25Z"/><path class="cls-1" d="M95.76,37.91l-.24-3.66a11.4,11.4,0,0,1-9.12,4.38c-7,0-12-5.64-12-13.68s5-13.68,12-13.68a11.4,11.4,0,0,1,9.12,4.38L95.76,12h8.58V37.91Zm-6.24-20c-3.3,0-5.82,2.58-5.82,7.08S86.22,32,89.52,32s5.82-2.58,5.82-7.08S92.82,17.87,89.52,17.87Z"/><path class="cls-1" d="M128.64,38.63A11.32,11.32,0,0,1,120,34.85V49.61h-9.3V12h8.58l.24,3.66a11.4,11.4,0,0,1,9.12-4.38c7,0,12,5.64,12,13.68S135.6,38.63,128.64,38.63Zm-3.12-20.76c-3.3,0-5.82,2.58-5.82,7.08S122.22,32,125.52,32s5.82-2.58,5.82-7.08S128.82,17.87,125.52,17.87Z"/><path class="cls-1" d="M143.7,35.69l1.32-6a17.72,17.72,0,0,0,9.42,3.06c2.28,0,3.6-.54,3.6-2s-1.62-1.62-4.44-2.22c-7.2-1.32-9.18-5.16-9.18-9.06,0-4.14,3.24-8.28,10.8-8.28a22.13,22.13,0,0,1,9.6,2.46l-1.38,5.7a15.78,15.78,0,0,0-7.8-2.22c-2.1,0-3.12.54-3.12,1.62,0,1.26,1.44,1.56,3.48,2,7.74,1.44,10.14,5.16,10.14,8.7,0,5.64-4,9.3-11.4,9.3A21.9,21.9,0,0,1,143.7,35.69Z"/><path class="cls-1" d="M185.31,14.45V26.78H183.1V14.45H170.86V12.24H183.1V0h2.21V12.24h12.24v2.21Z"/></g></g></svg>